<svg width="73" height="67" viewBox="0 0 73 67" fill="none" xmlns="http://www.w3.org/2000/svg">
<path d="M59.1677 20.5801H2.57251C1.89024 20.5801 1.23591 20.8511 0.75347 21.3335C0.271031 21.816 0 22.4703 0 23.1526V38.5876C0.00768813 42.9673 0.944305 47.2955 2.74801 51.2865C4.55172 55.2775 7.18148 58.8404 10.4637 61.7402H2.57251C1.89024 61.7402 1.23591 62.0112 0.75347 62.4937C0.271031 62.9761 0 63.6304 0 64.3127C0 64.995 0.271031 65.6493 0.75347 66.1317C1.23591 66.6142 1.89024 66.8852 2.57251 66.8852H59.1677C59.85 66.8852 60.5043 66.6142 60.9867 66.1317C61.4692 65.6493 61.7402 64.995 61.7402 64.3127C61.7402 63.6304 61.4692 62.9761 60.9867 62.4937C60.5043 62.0112 59.85 61.7402 59.1677 61.7402H51.2765C55.2163 58.2482 58.2038 53.8122 59.9587 48.8487C63.2262 48.6474 66.2939 47.2078 68.5368 44.8233C70.7797 42.4387 72.0291 39.2887 72.0302 36.0151V33.4426C72.0302 30.0312 70.6751 26.7596 68.2629 24.3474C65.8507 21.9352 62.579 20.5801 59.1677 20.5801ZM66.8852 36.0151C66.8841 37.6795 66.3449 39.2988 65.3482 40.6317C64.3514 41.9646 62.9505 42.9395 61.3543 43.4111C61.609 41.8158 61.738 40.2031 61.7402 38.5876V26.1688C63.2445 26.7007 64.5469 27.6857 65.4683 28.9883C66.3897 30.2909 66.8847 31.8471 66.8852 33.4426V36.0151ZM28.2976 12.8625V2.57251C28.2976 1.89024 28.5686 1.23591 29.0511 0.75347C29.5335 0.271031 30.1878 0 30.8701 0C31.5524 0 32.2067 0.271031 32.6891 0.75347C33.1716 1.23591 33.4426 1.89024 33.4426 2.57251V12.8625C33.4426 13.5448 33.1716 14.1991 32.6891 14.6816C32.2067 15.164 31.5524 15.435 30.8701 15.435C30.1878 15.435 29.5335 15.164 29.0511 14.6816C28.5686 14.1991 28.2976 13.5448 28.2976 12.8625ZM38.5876 12.8625V2.57251C38.5876 1.89024 38.8587 1.23591 39.3411 0.75347C39.8235 0.271031 40.4779 0 41.1601 0C41.8424 0 42.4967 0.271031 42.9792 0.75347C43.4616 1.23591 43.7326 1.89024 43.7326 2.57251V12.8625C43.7326 13.5448 43.4616 14.1991 42.9792 14.6816C42.4967 15.164 41.8424 15.435 41.1601 15.435C40.4779 15.435 39.8235 15.164 39.3411 14.6816C38.8587 14.1991 38.5876 13.5448 38.5876 12.8625ZM18.0076 12.8625V2.57251C18.0076 1.89024 18.2786 1.23591 18.761 0.75347C19.2435 0.271031 19.8978 0 20.5801 0C21.2623 0 21.9167 0.271031 22.3991 0.75347C22.8815 1.23591 23.1526 1.89024 23.1526 2.57251V12.8625C23.1526 13.5448 22.8815 14.1991 22.3991 14.6816C21.9167 15.164 21.2623 15.435 20.5801 15.435C19.8978 15.435 19.2435 15.164 18.761 14.6816C18.2786 14.1991 18.0076 13.5448 18.0076 12.8625Z" fill="#30261C" fill-opacity="0.8"/>
</svg>
