<svg width="55" height="64" viewBox="0 0 55 64" fill="none" xmlns="http://www.w3.org/2000/svg">
<path d="M10.1998 0.00198934L6.09808 7.43219H0V14.1144H2.33333L4.7224 26.0007H0.990589L5.9258 47.8298L9.09011 47.8L12.2722 63.661H42.3977L42.608 62.6047L45.5772 47.798L48.587 47.8278L53.5096 25.9987H49.945L52.3188 14.1124H54.8802V7.4302H48.4021L44.2852 0L10.1998 0.00198934ZM11.9833 2.13656H42.5295L45.1263 6.86125H9.36626L11.9833 2.13656ZM2.69562 9.55681H52.1618V11.9997H2.69562V9.55681ZM4.22584 28.1234H50.292L46.3196 45.6753L27.2273 45.5182L8.19833 45.6753L4.22584 28.1234Z" fill="#30261C" fill-opacity="0.8"/>
</svg>
