<svg width="62" height="61" viewBox="0 0 62 61" fill="none" xmlns="http://www.w3.org/2000/svg">
<path fill-rule="evenodd" clip-rule="evenodd" d="M12.7153 0C12.2013 0.000100413 11.699 0.129379 11.2733 0.371181C10.8476 0.612982 10.5179 0.956231 10.3267 1.35671L6.00244 10.4302H55.4634L51.1391 1.35671C50.9479 0.956231 50.6182 0.612982 50.1925 0.371181C49.7668 0.129379 49.2645 0.000100413 48.7505 0L12.7153 0ZM10.1722 58.6582L6.29072 37.4953H55.1751L51.2936 58.6582C51.2001 59.1681 50.8924 59.6331 50.4259 59.9691C49.9595 60.3051 49.3652 60.4899 48.7505 60.4901H12.7153C12.1006 60.4899 11.5063 60.3051 11.0399 59.9691C10.5734 59.6331 10.2657 59.1681 10.1722 58.6582ZM5.59061 15.8268H55.8803C58.9691 15.8268 61.4658 17.6502 61.4658 19.8969V28.0285C61.4658 30.2753 58.9639 32.09 55.8803 32.09H5.58546C2.49673 32.09 0 30.2753 0 28.0285V19.8969C0 17.6502 2.50702 15.8268 5.59061 15.8268Z" fill="#30261C" fill-opacity="0.8"/>
</svg>
