<svg width="69" height="62" viewBox="0 0 69 62" fill="none" xmlns="http://www.w3.org/2000/svg">
<path d="M58.3102 10.29H37.7301V0H30.8701V10.29H10.29C4.61679 10.29 0 14.9068 0 20.5801V54.8802C0 58.6635 3.07672 61.7402 6.86002 61.7402H61.7402C65.5235 61.7402 68.6002 58.6635 68.6002 54.8802V20.5801C68.6002 14.9068 63.9834 10.29 58.3102 10.29ZM10.29 17.1501H58.3102C59.2199 17.1501 60.0923 17.5114 60.7356 18.1547C61.3788 18.7979 61.7402 19.6704 61.7402 20.5801L61.7436 31.2817C58.6703 32.0637 56.7049 33.7993 55.1717 35.1645C53.4327 36.708 52.2837 37.7301 49.7249 37.7301C47.1695 37.7301 46.0205 36.708 44.2814 35.1679C42.2406 33.3534 39.4486 30.8701 34.283 30.8701C29.1208 30.8701 26.3288 33.3534 24.2879 35.1679C22.5489 36.7114 21.4033 37.7301 18.8479 37.7301C16.2994 37.7301 15.1538 36.7114 13.4216 35.1679C11.8884 33.8028 9.92988 32.0637 6.86002 31.2817V20.5801C6.86002 19.6704 7.2214 18.7979 7.86465 18.1547C8.5079 17.5114 9.38034 17.1501 10.29 17.1501ZM6.86002 54.8802V38.7111C7.51515 39.133 8.14285 39.6509 8.85972 40.2923C10.9006 42.1068 13.6892 44.5901 18.8479 44.5901C24.0066 44.5901 26.8021 42.1068 28.843 40.2923C30.582 38.7488 31.7276 37.7301 34.283 37.7301C36.8383 37.7301 37.9874 38.7523 39.7264 40.2923C41.7672 42.1068 44.5593 44.5901 49.7249 44.5901C54.8905 44.5901 57.6859 42.1068 59.7268 40.2923C60.4505 39.6475 61.0816 39.1261 61.7436 38.7008L61.7471 54.8802H6.86002Z" fill="#30261C" fill-opacity="0.8"/>
</svg>
